<?xml version="1.0" standalone="no"?>
<!DOCTYPE svg PUBLIC "-//W3C//DTD SVG 20010904//EN"
 "http://www.w3.org/TR/2001/REC-SVG-20010904/DTD/svg10.dtd">
<svg version="1.0" xmlns="http://www.w3.org/2000/svg"
 width="450.000000pt" height="450.000000pt" viewBox="0 0 450.000000 450.000000"
 preserveAspectRatio="xMidYMid meet">
<metadata>
Created by potrace 1.11, written by Peter Selinger 2001-2013
</metadata>
<g transform="translate(0.000000,450.000000) scale(0.100000,-0.100000)"
fill="#000000" stroke="none">
<path d="M964 3970 c-211 -31 -389 -177 -466 -384 l-23 -61 -3 -1253 c-2
-1124 -1 -1259 14 -1315 40 -156 156 -303 295 -371 142 -70 76 -67 1507 -63
1396 3 1294 -1 1422 55 150 66 280 231 316 402 21 100 20 2434 -1 2535 -42
201 -195 370 -395 438 l-65 22 -1275 1 c-701 1 -1298 -2 -1326 -6z m2363
-1011 c38 -14 83 -57 99 -96 11 -26 14 -148 14 -655 l0 -623 -23 -37 c-28 -47
-62 -73 -112 -87 -49 -13 -1960 -15 -2018 -2 -56 13 -105 50 -127 97 -19 39
-20 62 -20 657 0 501 3 624 14 650 16 37 55 76 94 93 36 17 2036 19 2079 3z"/>
<path d="M1248 2879 c-37 -21 -21 -54 64 -130 348 -313 560 -502 566 -504 1
-1 -144 -147 -323 -326 -179 -178 -325 -331 -325 -340 0 -34 12 -49 39 -49 21
0 88 63 350 325 319 320 325 325 345 308 37 -31 191 -168 196 -174 11 -13 67
-38 103 -44 20 -4 59 -2 87 5 49 12 75 31 268 204 l23 20 323 -323 c292 -292
325 -322 352 -319 24 2 30 8 32 32 3 27 -27 60 -318 351 l-321 321 77 70 c43
38 96 85 119 104 22 20 90 81 150 135 226 204 278 250 287 256 5 3 8 19 6 35
-2 23 -8 30 -31 32 -23 3 -43 -10 -110 -70 -45 -40 -98 -87 -117 -104 -33 -29
-123 -110 -330 -295 -47 -42 -156 -140 -244 -217 -211 -189 -228 -192 -367
-65 -46 42 -138 123 -204 182 -66 58 -122 108 -125 111 -3 3 -45 41 -95 85
-49 44 -92 82 -95 85 -3 3 -43 39 -90 80 -47 41 -123 110 -169 152 -46 43 -89
78 -95 78 -6 0 -19 -5 -28 -11z"/>
</g>
</svg>
