<?xml version="1.0"?><svg version="1.2" baseProfile="tiny-ps" viewBox="0 0 211 211" xmlns="http://www.w3.org/2000/svg" xmlns:xlink="http://www.w3.org/1999/xlink"><title>La Pellegrina</title><g><g fill="#fdfdfd" transform="matrix(.1 0 0 -.1 0 211)"><path d="M0 1055V0h2110v2110H0V1055z"/></g><g fill="#e9e0d4" transform="matrix(.1 0 0 -.1 0 211)"><path d="M442 2083l-84-4 6-14 5-15h-33c-18 0-48-3-65-6l-31-6v-28l33-1 32-1-75-18c-110-26-221-57-227-64-16-16 11-17 71-3l66 15v-9c0-5 7-9 15-9 7 0 18-7 23-16l9-16 112 12c61 7 114 10 117 8 3-3-47-14-111-24l-115-18v-18l39 4 40 3-10-11c-5-7-32-21-59-33l-50-22v-21l17 7c38 16 164 55 176 54 7 0-26-14-73-31-75-27-126-55-117-65 2-1 21 6 43 16 21 10 48 21 60 25l21 6 11-37 10-38 3-100c1-55 1-154 0-220l-1-120-10-15-9-15-83-1-83-1-16 8-15 8-13-8-12-8 25-17 26-16 90-7 91-6-5-13c-5-14-15-131-20-254-2-36 1-119 7-185 5-66 10-132 10-147 0-16 4-28 7-28 8 0 7 2 14-103l5-77 15-22c9-12 17-18 17-13 1 6 1 123 1 260v250l13 153c6 84 15 155 19 159l6 6 1-79c0-43 2-90 4-104 1-14 6-77 10-140s9-128 11-145c2-16 7-67 11-113l6-83 9-5 8-5 1 38c1 21 1 44 0 52l-2 13 10-7 11-6V456c0-73 3-167 6-209l7-77h17l1 63 2 62 14-115c8-63 15-127 16-142 3-37 14-36 22 2l7 30-8 32-7 33 17-14 16-13v181l10 6 10 6v-58c0-32 5-100 12-150l12-93h24l5 38c3 20 6 63 6 94 0 32 3 63 7 70l8 12 12-35c7-18 13-44 13-56 1-12 7-46 13-75l13-53 5 60c5 56 3 141-14 686l-7 206 23 7c13 3 37 6 54 6 67 0 320 60 444 105 77 28 231 94 245 106 6 4 67 28 135 52 69 24 133 48 143 52l17 7v-10c0-14-91-92-107-92-7 0-26-8-43-19-17-10-87-36-155-57-69-21-125-41-125-44 0-16 217 41 301 79l65 29 40 44c23 24 45 51 50 59l9 16 70 17c125 31 190 80 202 151l5 34-21 43-21 43-102 106c-121 124-158 151-304 219-188 88-334 134-533 166l-96 15-235 3c-129 2-273 1-318-1zm531-70c-7-2-21-2-30 0l-18 5h60l-12-5zm60-10c-7-2-19-2-25 0l-13 5h50l-12-5zm44-9c-3-3-12-4-19-1l-13 5 19 1c11 1 17-2 13-5zm-627-35c-19-5-78-11-130-13l-95-5 95 13c52 7 111 13 130 14h35l-35-9zm258-86c-16-2-40-2-55 0l-28 4h110l-27-4zm-208-23c-116-20-136-23-128-15 9 9 149 33 193 33h40l-105-18zm623-39l118-30 102-51 102-50 63-51c54-43 102-99 102-120 0-3-41-18-92-33-50-16-98-30-105-33l-14-5 7 40 6 39-16 55-16 55-48 46-49 45-45 21c-120 54-239 87-368 102l-75 8 106-4 105-5 117-29zm292-7l60-17 65-43c103-66 170-140 170-188v-15l-70 69-69 70-77 50c-42 27-80 50-84 50s-28 12-51 26l-44 25 20-4c11-3 47-13 80-23zm-510 6c152-22 292-69 376-128l54-37 23-45 22-44v-104l-12-10-13-10-210-11c-175-9-368-14-422-12l-13 1v227l-12 57-11 58-21 8c-12 4-24 6-28 3l-8-4v61h103c56 0 134-5 172-10zm-366-32l-1-33-5 18-4 17h-15c-28 0-11 26 19 29l7 1-1-32zm71 7v-24l-20-11-20-11v71h40v-25zm-140-9v-24l-16-6c-20-8-19-8-28 21l-7 21 23 5c13 2 24 5 26 6 1 0 2-10 2-23zm1317-49c34-36 4-25-38 15l-44 42 33-19c18-11 41-28 49-38zm-1388-7v-15l-9 20c-5 11-9 27-9 35v15l9-20c5-11 9-27 9-35zm250-182l1-127-10-6-10-6 1 173 1 173 9-40c4-22 8-97 8-167zm-202 150l-5-13-1 19c-1 11 2 17 5 13 3-3 4-12 1-19zm1244 5l14-18-17 14c-10 7-18 15-18 17 0 8 8 3 21-13zm89-59l24-36-19-14c-10-8-21-14-25-14-3 0-10 24-16 54l-9 54 10-4c5-3 21-20 35-40zm-1323-21l-5-18v70l5-17c2-10 2-26 0-35zm1165-13l63-61-15-9c-22-14-25-13-42 24-9 18-31 50-48 70-49 55-28 43 42-24zm403-88l14-33-8-22c-15-38-58-67-138-91l-23-7 30 56 30 57v32c0 17 3 48 7 69l6 38 34-33c19-18 41-48 48-66zm-185 13v-14l-29-20c-16-12-36-21-44-21h-15l37 38c36 38 51 43 51 17zm-1323-92l-4-28v110l4-27c2-16 2-40 0-55zm1354-10c-10-20-48-56-71-68l-15-8 30 34c49 56 74 74 56 42zm-314-19c-3-3-12-4-19-1l-13 5 19 1c11 1 17-2 13-5zm-67-16c-19-6-54-16-77-23l-43-14v8c0 23 45 37 125 38l30 1-35-10zm-156-33l-6-14-36-6c-21-3-57-10-82-15s-63-12-85-16c-22-3-60-12-85-19-64-18-185-38-201-33l-13 4 129 27c72 14 184 39 250 56 66 16 123 29 127 30l7 1-5-15zm361 5c-3-5-11-10-16-10h-10l6 10c3 6 11 10 16 10h10l-6-10zm-1053-44c-6-48-12-46-12 5v40l8-5 8-5-4-35zm393 39c-24-9-271-55-297-55h-28v49l98 4c161 5 238 6 227 2zm565-25l-25-20h-25c-14 0-36-3-50-7l-25-6 6 7c10 11 102 44 124 45l20 1-25-20zm-1083-52l-4-23v40l-1 40 5-17c2-10 2-28 0-40zm286-35c-7-2-21-2-30 0l-18 5h60l-12-5zm-56-9c-3-3-12-4-19-1l-13 5 19 1c11 1 17-2 13-5zm53-56c0-11-48-10-54 1l-5 8 29-1c17-1 30-4 30-8zm-283-75l-5-18v70l5-17c2-10 2-26 0-35zm583 17c-135-37-213-62-225-72l-9-8h23c13 0 88 16 169 35 147 36 202 41 95 10-69-21-312-83-368-95-22-5-48-12-57-15l-18-7v174l23-6c12-3 46-6 75-6h53l-6-9-5-10 37 5c21 3 61 9 88 15 49 9 108 14 190 16l40 1-105-28zM457 843l-5-18v70l5-17c2-10 2-26 0-35zm200-75l-4-43v160l4-37c2-21 2-57 0-80zm-350-75l-4-28v100l4-22c2-13 2-35 0-50zm360-80l-4-28v110l4-27c2-16 2-40 0-55z"/></g><g fill="#d4bd83" transform="matrix(.1 0 0 -.1 0 211)"><path d="M550 2084c-25-2-73-6-108-10l-62-6 5-8 5-9-70-7-70-7v-20l103 5c56 3 91 4 77 1-107-17-249-46-270-53-14-5-51-16-84-25-74-20-67-31 10-15l58 12 4-11c2-6 10-11 17-11 8 0 18-8 23-17l10-17 52 12c48 11 189 16 163 6-6-3-58-13-115-24l-103-18 45-2c25-2 56-3 70-2l25 1-40-14c-64-21-132-52-139-64-9-14 0-14 27 0 11 7 54 22 94 34l73 23v-8c0-5-31-19-70-31-75-23-92-35-35-25l34 7 13-43 12-43-1-155c0-85-1-189-2-232l-1-76-52-4c-29-2-79-1-110 2l-58 6v-7c0-15 89-32 158-30l54 1-6-28c-3-15-9-94-12-177l-7-150 8-98 7-97 8 5 9 6-4 32c-2 18 0 46 4 62l9 30 1-176c1-179 7-239 22-239h9v472l11 147c6 80 14 160 18 176l7 30 13-220c7-121 15-224 19-230 3-5 8-52 10-104s8-104 12-115l9-21 2 75c1 41 5 138 8 215l8 140 2-290c2-159 6-315 11-345l7-55 2 43 1 42h18l6-47c3-27 9-79 12-118l7-70 8 25c3 14 4 41 2 61l-5 36 11 7 11 7v-62l10 6 10 6v97l1 97 8-15c5-8 12-55 15-105 4-50 12-127 18-172l11-82 9 5 8 5v240l17-3 18-3 15-95 16-95 6 28c3 15 4 76 3 135-2 59-6 290-10 515l-8 407h183v-19l28 4c128 20 169 25 252 29l95 6-154-44c-138-40-182-56-155-56 17 0 149 29 244 55 113 29 129 31 75 6-55-24-205-69-355-106-30-7-77-19-105-27l-50-13 31-3 31-3 104 21c121 24 310 81 389 117 165 76 229 103 237 103 5 0 56 18 113 40l104 39 8-12 7-12 13 16 13 15 55 14c80 19 132 44 167 79l31 31 7 29 6 30-19 45-20 45-109 110-109 111-44 28c-77 48-261 132-365 168-114 38-206 59-351 79l-101 14-179 5c-98 2-199 2-224 0zm552-90c60-14 107-28 105-30-2-3-33 2-69 11-36 8-115 21-174 29l-109 14 69 1 70 1 108-26zm-547-21c-16-2-71-10-121-18-90-15-211-22-219-13-3 3 48 10 112 17 65 7 125 14 133 16 8 1 40 3 70 2h55l-30-4zm-88-89c-3-3-12-4-19-1l-13 5 19 1c11 1 17-2 13-5zm297-6l-5-8h-52c-29 0-114-9-191-20-137-21-185-21-110-1 50 13 271 36 346 37h17l-5-8zm56 2v-9l-15 5c-8 4-15 8-15 10s7 4 15 4 15-4 15-10zm-413-6c-3-3-12-4-19-1l-13 5 19 1c11 1 17-2 13-5zm496-1c-7-2-21-2-30 0l-18 5h60l-12-5zm250-4c22-6 37-12 34-15-2-2-28 2-58 10l-54 15h20c11 1 37-4 58-10zm-51-48c191-48 361-136 454-233 23-24 45-53 48-65l7-21-93-31c-51-17-99-31-106-31h-12v125l-19 40-18 40-37 33c-65 57-182 108-321 139l-70 15-150 8-150 8 195-3 195-4 77-20zm322-17c138-46 286-173 286-245v-22l-57 60c-73 75-145 128-258 188-50 26-92 50-95 52-8 7 50-8 124-33zm-977 10c-3-3-12-4-19-1l-13 5 19 1c11 1 17-2 13-5zm573-22c144-39 235-80 296-134l37-33 13-32 14-32v-53c0-29-4-58-8-65l-8-12-149-10c-83-6-229-13-326-17l-176-7-6 139-6 139-13 40-13 40-15 3-15 3 3-181 4-180h-22l-1 158c0 86-4 177-8 202l-8 45-2-27-1-27-17-9-17-10 2-88 2-89-11 15-10 15 3 110 3 110 10 8 10 8 180-5 180-4 75-20zm-478-24l-4-41-11 19c-6 10-17 25-24 32l-13 14 5 9c4 5 16 9 28 9h23l-4-42zm-56-13c3-25 4-49 0-52-3-4-6 3-6 15v22h-27l3-117 3-118-8 100c-5 55-11 112-15 125-4 14-10 33-12 42l-5 16 18 5c10 3 23 5 30 6l12 1 7-45zm1257 11c30-19 61-46 71-60l16-26h-9c-9 0-77 56-131 106-25 24-2 15 53-20zm-1426 2l-5-13-1 19c-1 11 2 17 5 13 3-3 4-12 1-19zm82-87c1-86-5-74-12 24l-6 80 9-20c5-11 9-49 9-84zm1301 9c0-16-9-12-38 16l-27 26 33-16c17-9 32-21 32-26zm69-37c37-45 38-57 9-78l-23-16-11 48c-7 27-15 56-19 66l-7 17h10c6 0 24-17 41-37zm-141-57c28-28 52-56 52-62v-12l-20-5-19-5-11 33-11 33-42 49-42 48 20-14c11-8 44-37 73-65zM517 1453l-3-68v270l3-67c2-38 2-98 0-135zm1499 85l24-38v-48l-30-30-30-30-60-20c-33-12-60-19-60-17s11 21 25 41c33 48 45 95 45 173v65l31-30c17-16 42-46 55-66zm-118 27c-3-3-9 2-12 12l-7 18 12-12c7-7 10-15 7-18zm-18-37c0-20-18-5-23 19l-5 28 14-20c8-10 14-22 14-27zm-42 0l-3-33-35-17c-19-9-40-15-47-13l-12 4-5-12-4-12-1 12-1 13 39 24 39 25 7 21c3 11 11 20 16 20h10l-3-32zm-68-3c-7-9-15-13-19-10-3 3 1 10 9 15 21 14 24 12 10-5zm-75-35c-3-5-14-10-23-10h-17l15 10c8 5 19 10 23 10h8l-6-10zm195-40c0-13-79-100-91-100-18 0-8 17 38 63 49 50 53 53 53 37zm-301-35c-9-9-229-72-229-65 0 3 6 14 13 23l12 16 80 15c84 15 131 19 124 11zm-260-70l-14-13-65-12c-36-7-87-15-115-20-27-4-77-14-110-23s-96-21-140-26c-44-6-102-13-129-17l-49-7 7 11c4 7 17 12 29 12 31 1 324 62 517 108l75 18 4-9c2-5-3-15-10-22zm372 15c-13-11-28-20-34-20h-10l18 20c10 11 25 20 34 20l16-1-24-19zm-613 5c-6-7-335-75-360-75h-18v69l138 4c75 1 161 4 191 5s52 0 49-3zm-558-54v-50l-10-6-10-6v111h20v-49zm120 15v-35l-10-6-10-6-1 10c-1 6-1 20-1 31 0 34 2 40 12 40h10v-34zm965 14c-20-22-58-35-125-44l-45-6 20 12c21 13 144 57 159 58 5 0 1-9-9-20zm160 1c-3-6-14-11-23-11h-16l20 14c21 15 30 14 19-3zm-535-125c0-2-9-6-20-9l-20-5 6 9c5 9 34 13 34 5zm-717-83c-3-43-7-80-9-82s-4 32-4 77v82h18l-5-77zm557 72c0-9-86-28-132-30l-48-1v21l47-3 48-3 25 10c27 10 60 14 60 6zm-212-17l-3-13-45-5c-55-6-110-1-110 11v8l78 4c42 1 78 4 80 5 1 1 1-4 0-10zM673 575l6-140-9 60c-5 33-13 128-18 210l-9 150 6 50 5 50 7-120c4-66 9-183 12-260zm-66 228l-5-18v70l5-17c2-10 2-26 0-35zm1108 420c-46-40-126-78-237-114-43-13-78-27-78-31 0-10-4-11 84 11 66 17 106 32 193 73 29 14 86 74 82 86l-4 10-40-35zm-365-153l-15-10 10 1c6 0 19 4 30 9l20 9h-15c-8 0-22-4-30-9z"/></g><g fill="#b7b6e0" transform="matrix(.1 0 0 -.1 0 211)"><path d="M461 2073l-45-4-20-15-20-14-36-1c-19-1-46-5-60-10l-25-8 55 5c30 2 90 6 133 9l78 4-6-9-5-8-68-7c-63-6-244-39-286-52l-20-6 23-18c13-11 31-19 40-19h16l-15-10-14-9 7-7 7-7 53 12c28 6 88 14 132 16l80 5-35-11c-19-6-80-19-135-29l-100-18 45-2c25-2 56-3 70-2l25 1-40-14c-64-21-132-52-139-64-9-14 0-14 27 0 11 7 54 22 94 34l73 23v-8c0-5-31-19-70-31-75-23-92-35-35-25l34 7 13-43 12-43 1-232v-233l-13-5c-8-3-28-5-45-5-18 0-39-5-47-10l-15-10 62 2c34 1 65-1 69-5l7-7h-31l-6-22c-3-13-9-90-13-173l-6-150 8-98 7-97 8 5 9 6-4 32c-2 18 0 46 4 62l9 30 1-176c1-179 7-239 22-239h9v476l10 130c6 71 12 150 13 176l2 48 25-1 25-1-17-5-18-4v-41c0-73 21-383 27-398 3-8 8-57 10-109 3-52 9-104 13-115l9-21 2 75c1 41 5 143 9 225l6 150 4-155c1-85 3-224 4-309l1-155 6 30c4 16 7 44 8 63l1 34 7-7c5-4 8-15 8-24 1-10 4-54 9-100l8-82 9-6 9-5 1 188c1 103 0 202-1 219l-1 32 12 7 12 8-5-179c-2-98-1-195 2-214l6-35 6 68 6 69 11 11 11 11v-20c1-45 30-317 35-322s10 121 5 143c-1 5 1 28 5 51l6 42 22 4 22 4 2-65c2-36 7-79 12-96l9-30 1 96c1 52-4 212-10 355l-11 259 7 152 7 152 86-4 86-3 4-10 3-9 47 4c26 3 51 9 56 14 6 5 29 9 52 9s97 7 164 16l123 16 75 24c41 14 77 22 80 20 7-7 5-8-228-75-223-65-250-79-58-31 66 17 123 29 125 26 10-9-74-40-267-97-196-58-223-72-84-44 111 24 271 73 339 105 111 52 245 110 255 110 6 0 54 17 107 37l97 37 4-12c5-17 22-15 22 3v14l38 7c102 18 200 72 227 124l14 28-8 29c-15 53-32 76-129 178-115 121-156 152-292 217-236 112-412 163-659 188l-103 10-187-2c-102-1-206-3-230-5zm639-73c158-40 369-115 357-126-3-3-27 4-54 15-129 53-347 101-521 116l-82 8-6 8-5 9h196l115-30zm-485-22c-55-4-138-16-185-25s-120-18-162-20l-78-5v20l28 6c27 5 200 23 277 30 22 1 81 3 130 3h90l-100-9zm148 5c-7-2-19-2-25 0l-13 5h50l-12-5zm-296-99c-3-3-12-4-19-1l-13 5 19 1c11 1 17-2 13-5zm297-6l-5-8h-52c-29 0-114-9-191-20-137-21-185-21-110-1 50 13 271 36 346 37h17l-5-8zm56 2v-9l-15 5c-8 4-15 8-15 10s7 4 15 4 15-4 15-10zm317-6c30-9 53-18 50-20-5-5-117 23-125 31-10 9 19 5 75-11zm-730 0c-3-3-12-4-19-1l-13 5 19 1c11 1 17-2 13-5zm496-1c-7-2-21-2-30 0l-18 5h60l-12-5zm199-52c191-48 360-135 455-233l42-43 6-25 6-25-100-33c-55-17-103-32-108-32h-8l3 61 4 61-17 43-16 44-39 35c-66 60-183 111-325 143l-70 15-150 8-150 8 195-3 195-4 77-20zm243 13c17-4 35-9 40-13 6-3 17-6 25-8 32-5 138-65 196-112l61-50 22-36 21-36v-53l-25 35c-56 76-159 155-301 229-106 57-121 66-89 57 11-3 34-9 50-13zm125 6l15-10h-10c-5 0-17 5-25 10l-15 10h10c6 0 17-5 25-10zm-1023-26c-3-3-12-4-19-1l-13 5 19 1c11 1 17-2 13-5zm573-22c144-39 235-80 296-134l37-33 13-32 14-32v-53c0-29-4-59-9-66l-8-14-99-8c-54-5-171-11-259-15-88-3-187-8-220-10s-66-1-72 3l-10 7-5 145-5 145-11 28-12 27h-29l6-31c3-17 6-96 7-177l1-147-17-3-18-3v349l-20-5-20-5v-266l-7-19-8-18-5 190-5 190-12-45-11-45-7 23c-4 12-11 22-16 22h-9v-28c0-15 4-32 10-38l10-10 7-152 6-152h-19c-10 0-25 4-32 9l-14 8 23 6 22 6-7 118c-3 65-12 139-18 166l-12 47h-23l3-117 3-118-8 100c-5 55-11 110-15 123-3 12-8 31-11 41l-6 19 53 11c94 18 110 19 293 16l180-3 75-20zm695-3l54-30 31-35c16-19 30-39 30-45v-10l-22 12c-13 7-43 30-68 53s-58 51-75 63l-30 22 13 1c7 0 37-14 67-31zm-1398-21l-5-13-1 19c-1 11 2 17 5 13 3-3 4-12 1-19zm82-87c1-86-5-74-12 24l-6 80 9-20c5-11 9-49 9-84zm1307-3l16-31-46 44c-25 24-46 45-46 47 0 1 13-4 30-13l30-15 16-32zm76-36l31-45-23-19c-12-10-25-18-29-18-6 0-41 115-41 134 0 17 35-12 62-52zm-1105 16l-5-13-1 19c-1 11 2 17 5 13 3-3 4-12 1-19zm967-78l49-52-14-9c-8-5-19-9-26-9h-11l-12 34-11 34-42 48-42 48 30-21c17-12 52-45 79-73zm339 8c45-56 57-80 57-116v-30l-35-31-35-30-52-16c-28-8-55-15-59-15-5 0 6 22 23 50l31 49 8 43c4 24 8 64 9 91v47h9c5 0 25-19 44-42zm-88-9c10-30 0-33-13-4l-12 25h10c5 0 12-9 15-21zm-15-45c0-7-4-15-8-18l-8-5-11 42-11 42 19-24c10-13 19-29 19-37zm-40-4v-40l-37-15c-20-9-43-13-49-11l-13 5-4-12c-2-7-7-9-11-6-6 6 11 24 62 65l32 26v14c0 8 5 14 10 14h10v-40zm-50 11c0-5-12-16-26-26l-25-16 10 19c9 17 19 25 39 31 1 1 2-3 2-8zm-91-56c-2-2-16-6-32-10l-27-7v9c0 5 12 14 28 19l27 10 4-9c1-4 1-10 0-12zm201-23c0-23-77-112-97-112h-13v13c0 6 21 33 47 59 47 46 63 56 63 40zm-310-45c-22-20-216-84-226-74-2 2 0 16 5 31l11 26 32 1c18 1 62 7 98 14s72 13 80 14l14 1-14-13zm-1094-43l34-6v-118h-20v112l-20-5-20-5v9c0 5-3 8-7 7-5-1-31 1-60 5l-52 8-7 11-7 11 57-6 56-5 1 11 1 12 5-17 4-17 35-7zm1244 11c0-10-81-58-87-52-8 9 17 37 42 47 23 10 45 12 45 5zm-627-16l-10-10-194-39c-107-22-197-40-201-40h-8v87l192 2c106 1 194 4 197 6 2 3 11 5 20 5h15l-11-11zm227-1c0-7-4-19-8-26l-9-13-104-20c-57-11-133-27-169-34-36-8-110-21-165-29s-119-18-142-22l-43-7v31l48 6c70 10 226 43 407 86 88 21 166 39 173 39l12 1v-12zm-657-15l-7-17-4 12-4 12-9-6-9-5v-79h-31l6 10 6 10h-10c-5 0-12-6-14-12-3-7-6 10-6 38l-1 50 45 3 45 2-7-18zm957 8c0-6-15-21-32-34l-33-24-70-7-70-6 60 25c33 14 69 29 80 34 45 21 65 25 65 12zm140-16v-15h-27l-28 1 19 14c25 19 36 19 36 0zM398 1233c-16-2-40-2-55 0l-28 4h110l-27-4zm907-1c-9-8-84-32-99-32h-7l6 10c7 11 59 28 90 29l19 1-9-8zm-641-19c-34-14-54-16-54-5 0 16 11 20 47 19l37-1-30-13zm-135-45c-1-29-4-78-9-108l-7-55-2 108-1 107h20l-1-52zm-58-11l-11-11v25c0 14 3 29 8 33l7 8 3-22 4-22-11-11zm589 41c-14-6-34-15-45-20l-20-9-145-2-145-2v29l82 1h81l-1-9c-1-6 6-12 16-14l17-3v26l47-3 48-3 25 10c14 5 34 10 45 10h20l-25-11zm-420-52c0-3-4-8-10-11l-10-6v10c0 6 5 11 10 11 6 0 10-2 10-4zm-24-346c3-96 4-173 1-170-9 9-17 110-22 270l-4 155 9-40c4-22 12-119 16-215zm53-57c6-148 13-292 15-320 1-29 0-53-4-53-11 0-31 246-37 448l-6 192h20l12-267zm-57 587v-25l5 13c2 6 2 18 0 25l-5 12v-25zm1103-107c-46-40-126-78-237-114-43-13-78-27-78-31 0-10-4-11 84 11 66 17 106 32 193 73 29 14 86 74 82 86l-4 10-40-35zm-1567-10c6-2 18-2 25 0l12 5h-50l13-5zm1202-143l-15-10 10 1c6 0 19 4 30 9l20 9h-15c-8 0-22-4-30-9z"/></g><g fill="#d3c01d" transform="matrix(.1 0 0 -.1 0 211)"><path d="M461 2073l-45-4-20-15-20-14-36-1c-19-1-46-5-60-10l-25-8 55 5c30 2 90 6 133 9l78 4-6-9-5-8-68-7c-63-6-244-39-286-52l-20-6 23-18c13-11 29-19 36-19s15-5 17-10l3-11 95 11c52 7 111 10 130 8l35-4-45-11-45-12 95 4 95 5-20-9-20-8 190 1 190 1 75-14 75-14-20-7-19-7 33-6c44-9 61-8 36 3l-20 9h20c11 0 29-4 40-9l20-9-20-1-20-1 20-9c11-5 29-9 40-9h20l-20 9-20 9h20c11 0 27-4 35-9l15-10h-29l10-9c5-4 23-11 39-15l30-6-25 15-25 16 25-7c42-10 193-85 223-110 34-29 26-32-11-5-37 25-173 93-178 88-2-2 28-20 68-40s104-60 143-89l69-53 23-34c13-19 23-41 23-50v-17l-99-32c-55-18-103-32-108-32h-8v147l-30 49-31 49-62 38-63 38-88 29c-49 17-97 30-107 29-11 0 20-13 68-29 49-16 114-42 145-57l58-28 42-42 42-41 6-34c3-18 5-57 3-87l-3-55-27-7c-23-6-214-18-544-33-45-2-86-1-91 2l-10 7-5 145-5 145-11 28-12 27h-29l6-31c3-17 6-96 7-177l1-147-17-3-18-3v349l-20-5-20-5v-266l-7-19-8-18-5 190-5 190-12-45-11-45-7 23c-4 12-11 22-16 22h-9v-28c0-15 4-32 10-38l10-10 7-152 6-152h-19c-10 0-25 4-32 9l-14 8 23 6 22 6-7 103c-8 115-27 220-42 225l-9 3 2-157 1-158-9 123c-9 126-31 258-46 273l-8 8 1-207 2-207-10 160c-5 88-10 179-11 203-3 47-2 46-40 37l-28-7 7-17c4-9 8-29 10-46l4-30-17 43-17 42h-23l19-52 18-53-1-232-2-232-14-5c-8-3-29-6-46-6-18 0-39-5-47-10l-15-10 62 2c34 1 65-1 69-5l7-7h-30l-7-57c-4-32-9-112-11-178l-4-120 8-35 9-35 1 82 1 82 10 6 10 6 1-218 1-218 8-30 8-30 2 20c1 11 4 115 5 230 2 116 9 276 16 358l12 147h45l8-32 8-33-1-267V600h17l1 133c0 72 4 152 8 177l8 45 3-150c2-137 3-202 10-365l3-55 7 40c7 38 11 39 14 5 1-8 5-52 10-98l8-82 9-6 9-5 1 188c1 103 0 202-1 219l-1 32 12 7 12 8-5-179c-2-98-1-195 2-214l6-35 6 68 6 69 11 11 11 11v-20c1-45 30-317 35-322s10 121 5 143c-1 5 1 28 5 51l6 42 22 4 22 4 2-65c2-36 7-79 12-96l9-30 1 96c1 52-4 212-10 355l-11 259 7 151 7 151 107-2c60-1 112-4 117-7s32-2 59 3c28 4 114 15 192 24l143 16 76 25c42 13 79 22 82 20 7-7 5-8-228-75-223-65-250-79-58-31 66 17 123 29 125 26 10-9-74-40-267-97-196-58-223-72-84-44 111 24 271 73 339 105 112 53 245 110 255 110 6 0 52 16 102 35s96 34 102 34c6-1 24 3 39 9 16 7 35 12 42 12 27 0 130 43 163 68 18 14 40 38 47 52l14 28-8 29c-15 53-32 76-129 178-115 121-156 152-292 217-236 112-412 163-659 188l-103 10-187-2c-102-1-206-3-230-5zm639-73c158-40 369-115 357-126-3-3-27 4-54 15-129 53-347 101-521 116l-82 8-6 8-5 9h196l115-30zm-395-20l-6-9H565l-127-20c-70-12-155-21-188-21h-60v9c0 12 29 17 160 31 146 15 173 16 273 18l88 2-6-10zm65 0c0-13-11-13-30 0l-15 10h45v-10zm47-6c-3-3-12-4-19-1l-13 5 19 1c11 1 17-2 13-5zm256-51c-7-2-19-2-25 0l-13 5h50l-12-5zm107-13l25-8-32-1-32-1-6 10-6 10 13-1c7-1 24-5 38-9zm-110-21c36-5 95-20 132-33l68-22 3 9 3 10 95-27 94-27 65-39 65-38 47-49 47-48 16-38 16-38-7-10-6-10-16 13-16 13 8-14 9-13-14-9c-8-5-21-9-30-9h-16l-6 29-6 29-56 61c-31 33-72 70-91 81l-34 22v14c0 8-5 14-11 14h-10l6-12 6-13-13 15c-7 8-22 16-33 18s-26 11-33 20-18 16-23 14c-6-1-59 13-119 33-60 19-146 41-192 49l-83 14 35 1c19 0 64-4 100-10zm400-49l15-10h-10c-5 0-17 5-25 10l-15 10h10c6 0 17-5 25-10zm245-51l54-30 31-35c16-19 30-39 30-45v-10l-22 12c-13 7-43 30-68 53s-58 51-75 63l-30 22 13 1c7 0 37-14 67-31zm-9-110l16-32-46 39c-25 21-46 42-46 46v9l30-16 30-15 16-31zm76-37l31-45-23-19c-12-10-26-18-30-18-6 0-40 114-40 134 0 17 35-13 62-52zm-1105 16l-5-13-1 19c-1 11 2 17 5 13 3-3 4-12 1-19zm1306-70c45-56 57-80 57-116v-30l-35-31-35-30-52-16c-28-8-55-15-59-15-5 0 6 22 23 50l31 49 8 43c4 24 8 64 9 91v47h9c5 0 25-19 44-42zm-88-9c10-30 0-33-13-4l-12 25h10c5 0 12-9 15-21zm-15-45c0-7-4-15-8-18l-8-5-11 42-11 42 19-24c10-13 19-29 19-37zm-40-4v-40l-32-13c-18-8-45-17-61-21l-27-7 11 18c6 10 25 27 43 38 17 11 35 30 41 43 5 12 13 22 17 22h8v-40zm-70-10c-32-24-42-14-11 11 13 11 27 17 30 14 3-4-5-15-19-25zm-67-30c-4-5-20-12-35-15l-28-7v9c0 11 52 32 63 25l9-4-9-8zm197-28c0-23-77-112-97-112h-13v13c0 6 21 33 47 59 47 46 63 56 63 40zm-260-32c0-5-5-10-11-10h-10l6 10c3 6 8 10 11 10 2 0 4-4 4-10zm-50-13c-22-20-216-84-226-74-2 2 0 16 5 31l11 26 32 1c18 1 62 7 98 14s72 13 80 14l14 1-14-13zm-1165-22c6 0 16 4 23 8l12 8v-30l35-7 35-6v-118h-20v112l-20-5-20-5v9c0 5-3 8-7 7-17-5-113 13-118 22l-5 9 27 3c16 2 33 1 38-2 6-4 15-6 20-5zm1315-10c0-10-81-58-87-52-8 9 17 37 42 47 23 10 45 12 45 5zm-627-16l-10-10-194-39c-107-22-197-40-201-40h-8v87l192 2c106 1 194 4 197 6 2 3 11 5 20 5h15l-11-11zm225-14l-11-24-67-15c-38-9-98-20-134-25s-70-12-75-15-67-15-138-26c-70-10-147-22-170-26l-43-7v31l48 6c70 10 226 43 407 86 88 21 168 39 177 39l18 1-12-25zm-655-2l-7-17-4 12-4 12-9-6-9-5v-79h-30v25l-10-15-10-15v101l45 3 45 2-7-18zm957 8c0-6-15-21-32-34l-33-24-70-6-70-6 45 21c47 22 140 57 153 58 4 0 7-4 7-9zm140-16v-15h-27l-28 1 19 14c25 19 36 19 36 0zm-1303-82l-4-28v100l4-22c2-13 2-35 0-50zm-72-26l20-5-55 1h-55l28 4 27 4v24l8-11c4-7 16-14 27-17zm901-6c-3-4-18-11-33-15-16-3-45-10-65-15l-38-9 6 9c6 10 90 37 117 38l18 1-5-9zm-642-18c-34-14-54-16-54-5 0 16 11 20 47 19l37-1-30-13zm-138-90c-4-54-11-118-16-143l-8-45v135c0 139 1 150 20 150h11l-7-97zm568 89l5-9-53-16-54-17-139-7-140-6-8 12-7 13 8 8 9 9 128 5 127 5-5-10-6-9h13c7 0 31 7 53 15 47 17 62 18 69 7zm-623-55l-11-11v25c0 14 3 29 8 33l7 8 3-22 4-22-11-11zm169-11c0-3-4-8-10-11l-10-6v10c0 6 5 11 10 11 6 0 10-2 10-4zm-24-346c3-96 4-173 1-170-9 9-17 110-22 270l-4 155 9-40c4-22 12-119 16-215zm53-57c6-148 13-292 15-320 1-29 0-53-4-53-11 0-31 246-37 448l-6 192h20l12-267zm781 1003c0-3 9-10 20-16s20-8 20-6c0 3-9 10-20 16s-20 8-20 6zm72-52c10-10 20-16 22-13 3 3-5 11-17 18l-22 13 17-18zm68-54c0-5 5-10 11-10h10l-6 10c-3 6-8 10-11 10-2 0-4-4-4-10zm30-24c0-2 8-10 18-17l17-14-14 18c-13 16-21 21-21 13zM612 1330v-25l5 13c2 6 2 18 0 25l-5 12v-25zm-282 553c-14-3-29-9-35-14l-9-9 34 6c19 4 39 11 45 15l9 9-9-1c-6-1-21-4-35-6zm100-9c-90-19-203-54-197-61 3-3 28 2 56 12l51 16 9-5 10-6 5 9c4 5 40 15 81 22 42 6 78 16 81 20l5 9-18-1c-10 0-47-7-83-15zm230-11v-8h355l-45 7c-25 3-105 7-177 7l-133 1v-7zm-95-13l-6-10 18 1c10 1 29 5 43 9l25 8-37 1-37 1-6-10zm-57-7c6-2 18-2 25 0l12 5h-50l13-5zm108-11l-4-8 71 4c105 5 114 10 20 11l-82 1-5-8zm192 1c7-3 16-2 19 1 4 3-2 6-13 5l-19-1 13-5zm-293-13l-6-10 33 7c44 8 48 13 10 13h-31l-6-10zm383 3c6-2 18-2 25 0l12 5h-50l13-5zm-423-13l6-10 10 5c14 9 11 15-7 15h-15l6-10zm478 3c9-2 23-2 30 0l12 5h-60l18-5zm-805-600c6-2 18-2 25 0l12 5h-50l13-5zm1527-29l-30-24h11c15 0 61 37 54 43-3 3-18-6-35-19zm-1290-91c4-54 11-129 15-168l7-70 2 106c0 58-2 134-5 168l-7 61h-19l7-97zm1197 50c-29-14-51-28-48-31 8-7 106 39 106 50 0 4-1 8-2 7-2 0-27-12-56-26z"/></g><g fill="#8382c5" transform="matrix(.1 0 0 -.1 0 211)"><path d="M456 2071l-49-6-5-14-4-13 33 8 34 9 255-3 255-2 95-15c262-42 524-138 690-253 86-59 99-71 98-90 0-10 3-25 7-35l7-18-33 21c-19 12-97 62-174 112-77 51-181 111-230 134l-91 43-119 34c-66 19-145 37-175 41l-55 6 110-29c109-29 242-74 320-107l40-17-11-4c-6-2-31 5-55 15-56 24-202 66-299 86-134 27-242 37-425 41l-180 4-95-14c-136-20-240-48-240-66 0-4 10-11 23-15 12-4 25-11 28-16l6-9 94 12c52 6 110 9 129 7l35-4-45-11-45-12 95 4 95 5-20-9-20-8 190 1 190 1 75-14 75-14-20-7-19-7 33-6c44-9 61-8 36 3l-20 9h20c11 0 29-4 40-9l20-9-20-1-20-1 20-9c11-5 29-9 40-9h20l-20 9-20 9h20c11 0 27-4 35-9l15-10h-29l10-9c5-4 23-11 39-15l30-6-25 15-25 16 25-7c42-10 193-85 223-110 34-29 26-32-11-5-37 25-173 93-178 88-2-2 28-20 68-40s104-60 143-89l69-53 24-34 23-35-5-35c-7-55-11-70-22-80-10-10-141-55-191-66l-33-7v9c0 4 8 22 17 38l16 30 1 81 1 81-30 49-31 49-62 38-63 38-88 29c-49 17-97 30-107 29-11 0 20-13 68-29 107-36 185-73 231-111l34-28 17-35 16-34v-124l-20-28c-11-15-17-30-14-32 2-3-1-17-7-31l-12-26-71-16c-39-9-93-19-121-24-27-5-88-16-135-25s-139-25-205-35c-66-11-135-24-154-28l-34-9 1-69c1-39 4-113 7-165s10-211 15-352c6-141 13-264 17-273l6-17 16 5 16 4 2-66c2-36 7-79 12-96l9-30 1 96c1 52-4 212-10 355l-11 259 7 151 7 151 107-2c60-1 112-4 117-7s32-2 59 3c28 4 114 15 192 24l143 16 76 25c42 13 79 22 82 20 7-7 5-8-228-75-223-65-250-79-58-31 66 17 123 29 125 26 10-9-74-40-267-97-196-58-223-72-84-44 111 24 271 73 339 105 122 57 222 99 298 124 43 15 96 35 117 46l39 20 6-10 7-11 53 55 54 54 21 42 21 41 6 83 6 83-36 55-35 56-64 45c-60 42-204 115-313 159-143 57-325 100-504 118l-103 10-187-2c-102 0-208-4-235-7zm249-91l-6-9H565l-127-20c-70-12-155-21-188-21h-60v9c0 12 29 17 160 31 146 15 173 16 273 18l88 2-6-10zm65 0c0-13-11-13-30 0l-15 10h45v-10zm47-6c-3-3-12-4-19-1l-13 5 19 1c11 1 17-2 13-5zm256-51c-7-2-19-2-25 0l-13 5h50l-12-5zm107-13l25-8-32-1-32-1-6 10-6 10 13-1c7-1 24-5 38-9zm-110-21c36-5 95-20 132-33l68-22 3 9 3 10 95-27 94-27 65-39 65-38 47-49 47-48 16-38 16-38-7-10-6-10-16 13-16 13 8-13 8-13-14-16-13-17 17 7 17 6 6-9 5-9-30-17c-16-10-33-26-36-36s-10-18-15-18h-10l11 19c13 25 13 46-1 93l-10 38-55 60c-31 32-71 69-90 80l-34 22v14c0 8-5 14-11 14h-10l6-12 6-13-13 15c-7 8-22 16-33 18s-26 11-33 20-18 16-23 14c-6-1-59 13-119 33-60 19-146 41-192 49l-83 14 35 1c19 0 64-4 100-10zm400-49l15-10h-10c-5 0-17 5-25 10l-15 10h10c6 0 17-5 25-10zm236-161l16-32-46 39c-25 21-46 42-46 46v9l30-16 30-15 16-31zm71-21c11-12 30-40 42-61l21-38v-69l-32-13c-18-8-46-17-62-21l-29-7 10 13c6 7 14 33 18 58l7 46-16 61c-9 33-16 64-16 67 0 11 33-10 57-36zm88-89l16-31-6-16-7-17-14 45c-16 52-15 50-9 50 2 0 12-14 20-31zm30 10c10-30 0-33-13-4l-12 25h10c5 0 12-9 15-21zm-10-147c-26-41-67-82-82-82h-13v12c0 7 24 36 52 65l53 54 3-11c2-6-4-23-13-38zm-145-47c0-10-81-58-87-52-8 9 17 37 42 47 23 10 45 12 45 5zm-100-24c0-6-15-21-32-34l-33-24-100-33c-55-18-107-34-115-35s-34-7-56-14c-23-6-63-15-89-20l-47-9 10 10c5 5 50 21 98 35 49 13 125 41 168 60 78 35 174 72 189 73 4 0 7-4 7-9zm138-18l-3-17-45-22c-25-13-63-26-85-29l-40-7 55 29c30 15 66 36 80 46 13 9 28 17 33 17h8l-3-17zm-684-131l5-9-53-16-54-17-139-7-140-6-8 12-7 13 8 8 9 9 128 5 127 5-5-10-6-9h13c7 0 31 7 53 15 47 17 62 18 69 7zm-454-66c0-3-4-8-10-11l-10-6v10c0 6 5 11 10 11 6 0 10-2 10-4zm29-403c6-148 13-292 15-320 1-29 0-53-4-53-11 0-31 246-37 448l-6 192h20l12-267zm781 1003c0-3 9-10 20-16s20-8 20-6c0 3-9 10-20 16s-20 8-20 6zm72-52c10-10 20-16 22-13 3 3-5 11-17 18l-22 13 17-18zm68-54c0-5 5-10 11-10h10l-6 10c-3 6-8 10-11 10-2 0-4-4-4-10zm30-24c0-2 8-10 18-17l17-14-14 18c-13 16-21 21-21 13zM330 1883c-14-3-29-9-35-14l-9-9 34 6c19 4 39 11 45 15l9 9-9-1c-6-1-21-4-35-6zm100-9c-90-19-203-54-197-61 3-3 28 2 56 12l51 16 9-5 10-6 5 9c4 5 40 15 81 22 42 6 78 16 81 20l5 9-18-1c-10 0-47-7-83-15zm230-11v-8h355l-45 7c-25 3-105 7-177 7l-133 1v-7zm-95-13l-6-10 18 1c10 1 29 5 43 9l25 8-37 1-37 1-6-10zm-57-7c6-2 18-2 25 0l12 5h-50l13-5zm108-11l-4-8 71 4c105 5 114 10 20 11l-82 1-5-8zm192 1c7-3 16-2 19 1 4 3-2 6-13 5l-19-1 13-5zm-471-17l-28-10 7-16c4-8 8-28 10-45l4-30-17 43-17 42h-23l19-52 18-53-1-230-2-230 29 4c16 1 32 8 36 15l8 11v-26l43 3 42 3 6 45 6 45 1-42 2-43h30v110l-22-1c-26 0-115 17-138 28l-15 6 30 7 30 6 10-6c9-6 24-6 43 0 4 1 18 3 32 3l25 2-2 100-2 100-14 64c-7 36-18 66-23 68l-9 3 2-157 1-158-9 123c-9 126-31 258-46 273l-8 8 1-207 2-207-10 160c-5 88-10 179-11 202-2 23-5 44-7 46-3 2-18-1-33-7zm178 4l-6-10 33 7c44 8 48 13 10 13h-31l-6-10zm383 3c6-2 18-2 25 0l12 5h-50l13-5zm-423-13l6-10 10 5c14 9 11 15-7 15h-15l6-10zm478 3c9-2 23-2 30 0l12 5h-60l18-5zm-411-55l-10-43-7 23c-4 12-11 22-16 22h-9v-28c0-15 4-32 10-38l9-9 7-143 7-143 14 3 15 3-2 195c0 107-3 196-5 198s-8-16-13-40zm102-25c4-9 9-87 13-173l6-156 20-1 19-2-4 147-5 147-11 28-12 27h-32l6-17zm33-75l-5-13-1 19c-1 11 2 17 5 13 3-3 4-12 1-19zm-63-88v-175l3 88c2 48 2 126 0 175l-3 87v-175zm-84-260v-50h30v100h-30v-50zm127 43c-4-3-7-21-7-40v-33h9c5 0 16 3 25 6l16 6v68h-10c-5 0-10-6-10-12v-13l-8 13-8 12-7-7zm-45-23v-25l5 13c2 6 2 18 0 25l-5 12v-25zm-76-122c-2-7-9-69-16-138-6-69-14-127-16-130-3-2-5 47-4 110s1 125 1 138l-1 22h-20v-24c0-14-4-27-9-31l-10-5-3 27-3 28-20-3c-11-2-20-5-21-5-1-1 3-56 7-122l9-120-6-177-7-178h23l1 133c0 72 4 152 8 177l8 45 2-150c3-207 11-408 16-414 3-2 5 12 5 32v36l15-5 15-6 1 18c0 11 2 100 5 199 2 99 8 200 13 225l8 45 3-70c1-38 3-86 5-105s4-129 5-245l2-210 11 55 11 55v115c0 63-4 242-8 398l-9 283-9 5-8 5-4-13zm1139-24l-30-24h11c15 0 61 37 54 43-3 3-18-6-35-19zm-1366 9l-16-4-7-57c-4-31-9-111-11-177l-4-120 8-35 9-35 1 82 1 82 10 6 10 6 1-218 1-218 8-30 8-30 2 15c1 8 4 121 6 250s8 279 14 334c5 54 10 111 10 127v29l-17-1c-10-1-25-3-34-6zm76-100c4-54 11-129 15-168l7-70 2 106c0 58-2 134-5 168l-7 61h-19l7-97zm1197 50c-29-14-51-28-48-31 8-7 106 39 106 50 0 4-1 8-2 7-2 0-27-12-56-26zM496 425l-5-15h9c6 0 10 7 10 15s-2 15-4 15-6-7-10-15z"/></g><g fill="#779c26" transform="matrix(.1 0 0 -.1 0 211)"><path d="M456 2071l-49-6-5-14-4-13 33 8 34 9 255-3 255-2 95-15c262-42 524-138 690-253 86-59 99-71 98-90 0-10 3-25 7-35l7-18-33 21c-19 12-97 62-174 112-77 51-181 111-230 134l-91 43-119 34c-66 19-145 37-175 41l-55 6 110-29c109-29 242-74 320-107l40-17-11-4c-6-2-31 5-55 15-56 24-202 66-299 86-134 27-242 37-425 41l-180 4-95-14c-132-19-240-48-240-64 0-4 15-14 33-22l34-15 74 7c41 4 101 8 134 8h60l-20-10-20-9 30 4c17 3 70 8 118 12l87 7v-12c0-6 5-11 11-11h10l-6 10-6 10h32l-6-10-6-10h10c5 0 11 5 13 12l4 12 14-9 15-9 75 2 75 3 109-16c60-8 132-22 160-29s79-19 113-25c142-27 219-62 321-148l53-45 19-39c26-50 25-59-7-87l-28-23 23 6 22 6v-10c0-5-13-18-29-27l-30-17-4-19c-3-10-10-18-16-18h-11l11 24 12 24-7 37-7 36-22 22c-12 12-22 26-22 31s-7 12-15 14l-15 5 18-24c9-13 24-37 32-52l16-28-8-12c-7-12-13-40-14-68v-17l-57-20c-75-27-162-52-180-52h-14l20 34 20 33 5 64 6 64-11-49-11-50-17-19-18-18 5-17 4-17-13-18-13-17-100-20c-55-11-131-27-170-35-38-8-117-22-175-30-115-17-186-29-239-42l-34-9 1-69c1-39 4-113 7-165s10-211 15-352c6-141 13-264 17-273l6-17 16 5 16 4 2-66c2-36 7-79 12-96l9-30 1 96c1 52-4 212-10 355l-11 259 7 150 7 150 181 1 182 1 129 17 128 18 76 24c41 14 77 22 80 20 7-7 5-8-228-75-223-65-250-79-58-31 66 17 123 29 125 26 10-9-74-40-267-97-196-58-223-72-84-44 111 24 271 73 339 105 122 57 222 99 298 124 43 15 95 35 115 45s43 16 49 14l12-4 50 49 49 49 22 42 21 42 6 83 6 83-36 55-35 56-64 45c-60 42-204 115-313 159-143 57-325 100-504 118l-103 10-187-2c-102 0-208-4-235-7zm439-102c39-5 82-11 98-13 15-2 28-5 30-6 1-1 26-3 55-5l53-2 11-11 12-12h40c23 0 47-4 54-9l14-8-16-6-15-6-58 9c-32 6-67 12-78 14s-63 9-115 15c-52 7-111 15-130 18s-59 5-87 5l-53-2v15l-51-2c-75-2-195-12-274-23-38-5-98-9-132-10h-63v9c0 14 61 22 305 45 62 6 322-4 400-15zm420-79l6-10h-20c-11 0-23 5-26 10l-6 10h20c11 0 23-4 26-10zm40-18c-3-3-11 0-18 7l-12 12 18-7c10-3 15-9 12-12zm115-32l15-10h-15c-8 0-22 5-30 10l-15 10h15c8 0 22-5 30-10zm190-115l30-15 16-31 16-31-10 3c-12 5-92 77-92 84 0 8 9 6 40-10zm117-67c11-12 30-40 42-61l21-38v-69l-37-15c-20-9-48-18-61-22l-24-6 10 19c5 11 12 36 16 56l7 37-16 66c-8 36-15 68-15 71 0 9 35-14 57-38zm88-89l16-31-6-16-7-17-14 45c-16 52-15 50-9 50 2 0 12-14 20-31zm30 10c10-30 0-33-13-4l-12 25h10c5 0 12-9 15-21zm-22-163l-29-41-54-37-55-37-49-16c-27-8-57-15-65-15h-16l55 28c100 52 122 67 178 125l56 59 4-12 4-12-29-42zm-133-31c0-10-81-58-87-52-8 9 17 37 42 47 23 10 45 12 45 5zm-100-24c0-6-15-21-32-34l-33-24-100-33c-55-18-107-34-115-35s-34-7-56-14c-23-6-63-15-88-20l-46-8v8c0 4 19 13 43 20 139 37 186 53 223 74 36 21 176 74 197 75 4 0 7-4 7-9zm-549-163l-44-20-103-9c-56-6-133-9-171-7l-68 3v30l79 7c43 4 83 9 88 10 5 2 66 4 136 4l127 2-44-20zm-451-52c0-3-4-8-10-11l-10-6v10c0 6 5 11 10 11 6 0 10-2 10-4zm29-403c6-148 13-292 15-320 1-29 0-53-4-53-11 0-31 246-37 448l-6 192h20l12-267zM405 1756c3-27 6-117 7-200l1-151 7 65 7 65 1-68 2-68 8 4 7 5-7 149-7 148-15 50-16 50 5-49zm137 2l-10-43-7 23c-4 12-11 22-16 22h-9v-28c0-15 4-32 10-38l9-9 7-143 7-143 14 3 15 3-2 195c0 107-3 196-5 198s-8-16-13-40zm-246-4l15-36 5-127c2-69 4-138 4-152v-27l31-4 31-5 5 14c6 15-13 362-20 369s-37-7-37-17c0-5 7-9 15-9h15l-1-37v-38l-8 20-9 20-3-25-4-25-20 58c-10 31-22 57-27 57-4 0 0-16 8-36zm41-106l-5-13-1 19c-1 11 2 17 5 13 3-3 4-12 1-19zm307 85c4-9 9-87 13-173l6-156 20-1 19-2-4 147-5 147-11 28-12 27h-32l6-17zm33-75l-5-13-1 19c-1 11 2 17 5 13 3-3 4-12 1-19zm-223 60c3-13 6-89 6-170v-147l20 2 20 1v189l-10 36c-5 20-12 53-15 74l-6 37h-21l6-22zm160-148v-175l3 88c2 48 2 126 0 175l-3 87v-175zm742 55c24-39 24-40 24-28 0 6-9 21-21 34l-20 24 17-30zm25-61l1-19 5 13c3 7 2 16-1 19-3 4-6-2-5-13zM320 1361c0-15-3-49-6-75l-7-46h52l6 20c3 11 11 20 16 20h9v88l-31 11c-41 14-39 15-39-18zm112-58l3-58h30l3 58 3 57h-41l2-57zm55 50c-4-3-7-28-7-55v-48h20v55c0 56-1 60-13 48zm43-43v-50h30v100h-30v-50zm127 43c-4-3-7-21-7-40v-33h9c5 0 16 3 25 6l16 6v68h-10c-5 0-10-6-10-12v-13l-8 13-8 12-7-7zm-244-53v-55l4 28c2 15 2 39 0 55l-4 27v-55zm199 30v-25l5 13c2 6 2 18 0 25l-5 12v-25zm-76-122c-2-7-7-47-10-88-9-110-27-230-35-230h-8l3 43c2 23 6 92 10 153l7 111-12 7-11 7v-25c0-14-4-28-10-31l-10-6v24c0 31-9 39-26 23l-13-13 8-144c4-79 9-124 10-99l2 45 9-20 9-20V798l1-148h10c6 0 10-5 10-11v-10l-10 6-10 6v-15c0-8 6-17 13-19l12-5-12-9-11-8 7-75c5-41 9-70 10-63l1 12 15-5 15-6 1 18c0 11 2 100 5 199 2 99 8 200 13 225l8 45 3-70c1-38 3-86 5-105s4-129 5-245l2-210 11 55 11 55v115c0 63-4 242-8 398l-9 283-9 5-8 5-4-13zm-241-75c-3-32-8-69-11-81l-5-24 11 7 10 6 1 37c1 20 4 48 9 62l7 25 2-329c1-181 3-332 6-334 3-3 5 72 5 167 0 158 14 427 25 494l5 27h-59l-6-57zm97 17v-25l5 13c2 6 2 18 0 25l-5 12v-25zm0-55v-30l5 18c2 9 2 23 0 30l-5 12v-30zm104-670l-5-15h9c6 0 10 7 10 15s-2 15-4 15-6-7-10-15zm-24-15v-25l5 13c2 6 2 18 0 25l-5 12v-25z"/></g><g fill="#c94122" transform="matrix(.1 0 0 -.1 0 211)"><path d="M456 2071l-49-6-5-14-4-13 33 8 34 9 255-3 255-2 95-15c262-42 524-138 690-253 84-58 101-73 97-86-2-6 6-31 19-56s24-55 24-68c0-34-26-79-72-124l-39-38-10 5c-5 4-9 13-9 21v14h-13c-22 0-27-11-11-27l15-15-13-15c-7-9-44-37-83-63l-71-48-174-42c-96-23-199-44-229-46l-56-4 25 11c14 6 74 27 134 45 60 19 123 41 140 50s75 33 128 54l97 38-16-25c-9-13-32-35-52-49-38-25-30-32 14-12l26 12 43 60 42 61 18 58 18 57-17 77-17 77-66 63-65 63-121 60-121 60-120 34c-66 18-145 36-175 39l-55 6 40-10c261-70 367-109 490-180l90-51 40-41c23-23 46-54 53-69l12-28h-8c-4 0-35 27-67 60l-60 60-75 37c-41 20-86 45-100 55l-24 19-24-6-24-6 6 9 5 8h-37l-37-1 3 13c3 16-9 15-33-1l-20-14-125 24c-194 36-338 54-346 42-5-8-44 1-44 10 0 11-219-2-309-19-29-5-70-10-90-10l-36-1-30-15c-16-8-21-12-11-9 17 5 60 10 269 30l48 4-5-8c-3-5-24-11-47-15-79-13-33-15 75-3l110 11 4-12c2-7 8-12 13-12s8 3 6 8c-1 4 3 7 8 7 6 0 9-3 8-7-2-5 1-8 6-8s11 6 14 13l4 12 14-11 14-12 48 8 49 7 81-8c99-10 177-24 237-42 25-8 50-12 57-10 20 7 174-37 240-69l62-30 65-54 66-54 20-40c25-48 25-66 3-79l-18-11 15-9 15-10-40-41c-21-22-43-40-48-40h-8l6 19c13 41 14 62 3 91l-10 30-19 11c-10 5-18 15-16 21 1 6-5 13-13 16l-15 5 18-24c9-13 24-37 33-52l16-29-13-50-12-50-51-23c-61-28-183-62-191-53-4 3 2 23 13 45l20 38 6 60 5 60-12-52c-7-29-18-58-24-65-7-6-13-22-13-35v-23l-19-19c-11-11-37-24-58-30-93-25-227-51-340-66-67-9-135-20-150-24l-28-8 140 3c77 2 161 5 188 8l47 5v-9c0-4-19-16-42-25l-43-17-90-9c-49-5-125-9-167-9h-77l-10 17-10 18-32-12-32-12-10 6-10 6 7-179c18-472 27-650 32-667l6-19 16 4 17 5 2-66c2-36 7-79 12-96l9-30 1 96c1 52-4 212-10 355l-11 259 7 150 7 150 181 1 182 1 129 17 128 18 76 24c41 14 77 22 80 20 7-7 5-8-228-75-223-65-250-79-58-31 66 17 123 29 125 26 10-9-74-40-267-97-196-58-223-72-84-44 111 24 271 73 339 105 122 57 222 99 298 124 43 15 96 35 117 46 22 11 46 20 54 20s16 3 18 8c2 4 19 19 38 33l36 27 27 51 28 50 6 84 6 84-36 55-35 56-64 45c-60 42-204 115-313 159-143 57-325 100-504 118l-103 10-187-2c-102 0-208-4-235-7zm1417-654l-28-41-55-38-55-38-49-15c-27-8-57-15-65-14l-16 1 15 5c8 4 42 26 74 50l60 43h36v29l38 28c20 15 44 37 52 48l15 20 3-19 4-19-29-40zM640 1146c0-3-4-8-10-11l-10-6v10c0 6 5 11 10 11 6 0 10-2 10-4zm29-403c6-148 13-292 15-320 1-29 0-53-4-53-11 0-31 246-37 448l-6 192h20l12-267zm291 1217c8-5 22-9 30-9h15l-20 9c-11 5-24 9-30 9l-10 1 15-10zm65-10c3-5 13-10 21-10h15l-6 10c-3 6-13 10-21 10h-15l6-10zm120-20c3-5 17-10 31-10h24v20h-61l6-10zm-740-174c3-27 6-117 7-200l1-151 7 65 7 65 1-68 2-68 8 4 7 5-7 149-7 148-15 50-16 50 5-49zm-109-2l15-36 5-127c2-69 4-138 4-152v-27l31-4 31-5 5 14c6 15-13 362-20 369s-37-7-37-17c0-5 7-9 15-9h15l-1-37v-38l-8 20-9 20-3-25-4-25-20 58c-10 31-22 57-27 57-4 0 0-16 8-36zm41-106l-5-13-1 19c-1 11 2 17 5 13 3-3 4-12 1-19zm307 85c4-9 9-87 13-173l6-156 20-1 19-2-4 147-5 147-11 28-12 27h-32l6-17zm33-75l-5-13-1 19c-1 11 2 17 5 13 3-3 4-12 1-19zm-218 77l-7-6 9-37c5-20 9-89 9-153v-117l15-12 15-12v192l-11 47c-6 27-14 61-18 76l-6 29-6-7zm155-165v-175l3 88c2 48 2 126 0 175l-3 87v-175zm742 55c24-39 24-40 24-28 0 6-9 21-21 34l-20 24 17-30zm25-61l1-19 5 13c3 7 2 16-1 19-3 4-6-2-5-13zM320 1361c0-15-3-49-6-75l-7-46h52l6 20c3 11 11 20 16 20h9v88l-31 11c-41 14-39 15-39-18zm111-56l1-55h28v24c0 38-12 86-21 86h-8v-55zm55 46c-9-14-4-91 6-97l8-5v55c0 55-3 65-14 47zm171 2c-4-3-7-21-7-40v-33h9c5 0 16 3 25 6l16 6v68h-10c-5 0-10-6-10-12v-13l-8 13-8 12-7-7zm-244-53v-55l4 28c2 15 2 39 0 55l-4 27v-55zm199 30v-25l5 13c2 6 2 18 0 25l-5 12v-25zm-179-138l-11-7 5-143c3-78 7-141 9-140 1 2 7 62 14 134l12 132-9 15-8 16-12-7zm49-109V965l8 45c5 25 9 78 9 118l1 72h-18v-117zm-187 50c-3-32-8-69-11-81l-5-24 11 7 10 6 1 37c1 20 4 48 9 62l7 25 2-329c1-181 3-332 6-334 3-3 5 72 5 167 0 158 14 427 25 494l5 27h-59l-6-57zm97 17v-25l5 13c2 6 2 18 0 25l-5 12v-25zm0-55v-30l5 18c2 9 2 23 0 30l-5 12v-30zm85-159c-4-10-5-21-2-24 9-9 17 6 13 25l-4 18-7-19zm0-53c-9-8-9-66-1-126l7-47 8 6 9 5v169h-8c-5 0-12-3-15-7zm8-223c3-5 8-10 11-10 2 0 4 5 4 10 0 6-5 10-11 10h-10l6-10z"/></g><g fill="#434fa3" transform="matrix(.1 0 0 -.1 0 211)"><path d="M617 1964c-1-1-38-4-82-8-44-3-104-10-134-16-29-5-70-10-90-10l-36-1-30-15c-16-8-21-12-11-9 17 5 60 10 269 30l48 4-5-8c-3-5-24-11-47-15-79-13-33-15 75-3l110 11 4-12c4-14 23-17 20-3-2 5 2 9 7 9 6 0 9-4 8-9-4-14 15-11 20 4l4 12 14-11 14-12 48 8 49 7 81-8c99-10 177-24 237-42 25-8 50-12 57-10 20 7 174-37 240-69l62-30 65-54 66-54 20-40c25-48 25-66 3-79l-18-11 15-9 15-10-40-41c-21-22-42-40-45-40-4 0-4 26-2 59l4 59-23 23c-13 13-24 28-24 33s-6 11-14 14l-14 5 9-14c4-8 18-29 31-48l23-34v-27c0-15-7-41-15-57l-15-31-48-20c-58-25-179-58-187-51-3 3 4 26 14 50l20 44 5 55 5 55-12-50c-7-27-17-59-23-70s-14-33-18-48l-7-28-42-19c-23-11-50-20-60-20s-55-9-100-19c-45-11-137-27-204-36s-135-20-150-24l-28-8 140 3c77 2 161 5 188 8l47 5v-9c0-8-44-26-125-51l-40-12 13-5c16-5 109 17 144 34 14 8 91 35 170 60 78 26 148 50 153 55 6 4 57 26 113 48l102 40-6-11-6-10 19 11c28 14 46 46 67 113l17 56-7 36-6 36-51 48c-27 26-61 59-74 74l-25 27-77 37c-42 21-87 46-101 56l-24 19-24-6-24-6 6 9 5 8h-37l-37-1 3 13c3 16-9 15-33-1l-20-14-125 24c-194 36-338 54-346 42-5-8-44 1-44 10 0 5-88 9-93 5zm343-4c8-5 22-9 30-9h15l-20 9c-11 5-24 9-30 9l-10 1 15-10zm65-10c3-5 13-10 21-10h15l-6 10c-3 6-13 10-21 10h-15l6-10zm120-20c3-5 17-10 31-10h24v20h-61l6-10zm-740-174c3-27 6-117 7-200l1-151 7 65 7 65 1-68 2-68 8 4 7 5-7 149-7 148-15 50-16 50 5-49zm-109-2l15-36 5-127c2-69 4-138 4-152v-27l31-4 31-5 5 14c6 15-13 362-20 369s-37-7-37-17c0-5 7-9 15-9h15l-1-37v-38l-8 20-9 20-3-25-4-25-20 58c-10 31-22 57-27 57-4 0 0-16 8-36zm41-106l-5-13-1 19c-1 11 2 17 5 13 3-3 4-12 1-19zm1303 116c31-34 64-63 68-59 6 5-40 54-67 72l-26 16 25-29zm-1181-29l-7-6 9-37c5-20 9-89 9-153v-117l15-12 15-12v192l-11 47c-6 27-14 61-18 76l-6 29-6-7zm897-110c24-39 24-40 24-28 0 6-9 21-21 34l-20 24 17-30zm550-48l5-14-23-39c-12-21-40-56-61-77l-38-37-10 5c-5 4-9 13-9 21v14h-14c-8 0-17-4-20-9l-6-9 10-4c6-2 12-13 14-25l5-23-17-11-17-11 18 6c10 3 25 6 33 6h14v13c0 7 20 31 46 53 70 60 105 130 74 149l-10 6 6-14zm-525-13l1-19 5 13c3 7 2 16-1 19-3 4-6-2-5-13zM320 1361c0-15-3-49-6-75l-7-46h52l6 20c3 11 11 20 16 20h9v88l-31 11c-41 14-39 15-39-18zm111-56l1-55h28v24c0 38-12 86-21 86h-8v-55zm55 46c-9-14-4-91 6-97l8-5v55c0 55-3 65-14 47zm-73-51v-55l4 28c2 15 2 39 0 55l-4 27v-55zm1282 40l-6-10h10c5 0 13 5 16 10l6 10h-10c-5 0-13-4-16-10zm78-15l-5-16 6-7 7-6 9 14c13 20 12 30 0 30-6 0-13-7-17-15zM433 1192l-11-7 5-143c3-78 7-141 9-140 1 2 7 62 14 134l12 132-9 15-8 16-12-7zm49-109V965l8 45c5 25 9 78 9 118l1 72h-18v-117zm-187 50c-3-32-8-69-11-81l-5-24 11 7 10 6 1 37c1 20 4 48 9 62l7 25 2-329c1-181 3-332 6-334 3-3 5 72 5 167 0 158 14 427 25 494l5 27h-59l-6-57zm97 17v-25l5 13c2 6 2 18 0 25l-5 12v-25zm0-55v-30l5 18c2 9 2 23 0 30l-5 12v-30zm85-159c-4-10-5-21-2-24 9-9 17 6 13 25l-4 18-7-19zm0-53c-9-8-9-66-1-126l7-47 8 6 9 5v169h-8c-5 0-12-3-15-7zm8-223c3-5 8-10 11-10 2 0 4 5 4 10 0 6-5 10-11 10h-10l6-10z"/></g><g fill="#305427" transform="matrix(.1 0 0 -.1 0 211)"><path d="M355 1935c-55-7-104-14-109-14-5-1-7-3-4-6s52-1 109 5 126 12 152 15l48 4-5-8-6-9h143c253-2 356-15 644-82 51-12 131-37 179-56 47-19 88-33 91-31 2 3-20 18-49 35-77 43-200 81-318 97-25 3-92 15-150 25-135 25-287 37-475 37H455l-100-12zm808-2c9-2 23-2 30 0l12 5h-60l18-5zm477-169c31-34 64-63 68-59 6 5-40 54-67 72l-26 16 25-29zm-1183-46c4-7 10-78 14-158l6-145 1 126c2 132-4 189-20 189h-9l8-12zm1269-126l6-40-21-14c-25-16-27-28-4-28h17l-30-32-29-31 18 6 17 6v-9c0-5-22-16-48-24-27-8-66-23-88-34-21-11-72-30-113-42l-74-22-20 6-20 5-27-14c-15-8-63-21-106-30-44-9-86-19-94-22s-28-8-45-10c-102-12-260-36-283-43l-27-7 145 4c80 2 190 5 245 7l100 4 85 31 85 31-60-5-60-5 25 11c14 6 66 19 115 29 50 10 121 30 158 43l67 24-6-9-6-10 19 11c27 14 46 45 65 107l16 51-5 42c-3 23-10 44-15 47l-8 5 6-39zm180-15l5-14-23-39c-12-21-40-56-61-77l-38-37-10 5c-5 4-9 13-9 21v14h-14c-8 0-17-4-20-9l-6-9 10-4c6-2 12-13 14-25l5-23-17-11-17-11 18 6c10 3 25 6 33 6h14v13c0 7 20 31 46 53 70 60 105 130 74 149l-10 6 6-14zm-1413-97v-85l4 43c2 23 2 61 0 85l-4 42v-85zm1128 0c0-15-6-31-13-38l-12-12h12c16 0 25 23 19 52l-4 23-2-25zm-255-62c-18-26-20-38-6-38 11 0 34 50 26 57-2 2-11-6-20-19zm-873-108v-55l4 28c2 15 2 39 0 55l-4 27v-55zm1202 30l-6-10h10c5 0 13 5 16 10l6 10h-10c-5 0-13-4-16-10zm78-15l-5-16 6-7 7-6 9 14c13 20 12 30 0 30-6 0-13-7-17-15zm-1325-40l-4-35h16v35c0 19-2 35-4 35s-6-16-8-35zm604-106c-30-5-61-13-70-19l-17-9 20-1c23 0 124 26 133 34 6 7 6 7-66-5zm-610-38l-2-40 10-6 10-6v91h-7c-5 0-9-18-11-39zm29-297c0-23 2-62 5-87l7-47 8 6 9 5v140l-9-6-9-5-5 17-5 18-1-41zm14-184c3-5 8-10 11-10 2 0 4 5 4 10 0 6-5 10-11 10h-10l6-10z"/></g></g></svg>